<svg width="18" height="18" viewBox="0 0 18 18" fill="none" xmlns="http://www.w3.org/2000/svg">
<path fill-rule="evenodd" clip-rule="evenodd" d="M2.44033 4.14241C2.32088 4.02296 2.17906 3.9282 2.02299 3.86355C1.86691 3.7989 1.69963 3.76562 1.53069 3.76562C1.18951 3.76563 0.862301 3.90116 0.621049 4.14241C0.379797 4.38366 0.244263 4.71087 0.244263 5.05205C0.244263 5.39324 0.379797 5.72045 0.621049 5.9617L4.90633 10.2457L4.91533 10.2547C5.26546 10.5976 5.73603 10.7897 6.22612 10.7897C6.71621 10.7897 7.18678 10.5976 7.53691 10.2547L7.54591 10.2457L9.73291 8.0587L12.7505 11.2498L11.4133 12.587C11.2786 12.7218 11.1869 12.8936 11.1498 13.0805C11.1127 13.2675 11.1318 13.4612 11.2047 13.6373C11.2776 13.8134 11.4011 13.9639 11.5595 14.0699C11.7179 14.1759 11.9042 14.2325 12.0948 14.2327H16.7902C17.0459 14.2327 17.2912 14.1311 17.472 13.9503C17.6529 13.7694 17.7545 13.5242 17.7545 13.2684V8.57555C17.7543 8.38496 17.6977 8.19869 17.5917 8.04027C17.4857 7.88185 17.3352 7.75839 17.1591 7.68547C16.983 7.61256 16.7892 7.59346 16.6023 7.6306C16.4154 7.66774 16.2436 7.75944 16.1088 7.89413L14.5698 9.43313L11.0932 5.75598C10.9214 5.57868 10.7163 5.43708 10.4896 5.33932C10.2629 5.24156 10.0191 5.18957 9.77227 5.18635C9.52542 5.18312 9.28036 5.22872 9.05119 5.32052C8.82203 5.41232 8.61326 5.54851 8.43691 5.72127L8.42791 5.72898L6.22548 7.93013L2.44033 4.14241Z" fill="#E90B0B" fill-opacity="0.79"/>
</svg>
