<svg width="19" height="12" viewBox="0 0 19 12" fill="none" xmlns="http://www.w3.org/2000/svg">
<path fill-rule="evenodd" clip-rule="evenodd" d="M2.85867 10.8574C2.61742 11.0986 2.29021 11.2342 1.94903 11.2342C1.60784 11.2342 1.28064 11.0986 1.03938 10.8574C0.798132 10.6161 0.662598 10.2889 0.662598 9.94773C0.662598 9.60655 0.798132 9.27934 1.03938 9.03809L5.32467 4.75409L5.33367 4.74509C5.68379 4.40216 6.15437 4.2101 6.64446 4.2101C7.13454 4.2101 7.60512 4.40216 7.95524 4.74509L7.96424 4.75409L10.1512 6.94109L13.1688 3.74995L11.8317 2.4128C11.697 2.27795 11.6053 2.10621 11.5681 1.91926C11.531 1.73232 11.5501 1.53857 11.623 1.36247C11.6959 1.18638 11.8194 1.03584 11.9778 0.929871C12.1362 0.823903 12.3225 0.767257 12.5131 0.76709H17.2085C17.4643 0.76709 17.7095 0.868684 17.8904 1.04952C18.0712 1.23036 18.1728 1.47563 18.1728 1.73138V6.4268C18.1726 6.6174 18.116 6.80367 18.01 6.96209C17.9041 7.12051 17.7535 7.24397 17.5774 7.31689C17.4013 7.3898 17.2076 7.4089 17.0206 7.37176C16.8337 7.33462 16.662 7.24292 16.5271 7.10823L14.9881 5.56795L11.5115 9.24638C11.3397 9.42368 11.1346 9.56528 10.9079 9.66304C10.6812 9.7608 10.4375 9.81279 10.1906 9.81601C9.94375 9.81924 9.6987 9.77364 9.46953 9.68184C9.24036 9.59004 9.0316 9.45385 8.85524 9.28109L8.84624 9.27209L6.64381 7.07095L2.85867 10.8574Z" fill="#038444"/>
</svg>
